# xmcd
#
# Track frame offsets:
#	150
#	10490
#	24078
#	37918
#	51296
#	67115
#	84364
#	96085
#	110702
#	128338
#	145997
#	158607
#
# Disc length: 2300 seconds
#
# Revision: 0
# Processed by: cddbd v1.4PL0 Copyright (c) Steve Scherf et al.
# Submitted via: dBpowerAMP V4.0
#
DISCID=9108fa0c
DTITLE=Bill Kirchen - Dieselbilly Road Trip
DYEAR=2003
DGENRE=Country
TTITLE0=Hollywood City
TTITLE1=Pittsburgh Stealers
TTITLE2=Is Anybody Goin' to San Antone
TTITLE3=California Cottonfields
TTITLE4=Streets of Baltimore
TTITLE5=The Promised Land
TTITLE6=Buckaroo
TTITLE7=Detroit Diesel
TTITLE8=Midnight in Memphis
TTITLE9=Sleepwalk
TTITLE10=Eight More Miles to Louisville
TTITLE11=Guitar Boogie Shuffle
EXTD=
EXTT0=
EXTT1=
EXTT2=
EXTT3=
EXTT4=
EXTT5=
EXTT6=
EXTT7=
EXTT8=
EXTT9=
EXTT10=
EXTT11=
PLAYORDER=
